<svg width="720" height="720" viewBox="0 0 720 720" fill="none" xmlns="http://www.w3.org/2000/svg">
<circle cx="360" cy="360" r="360" fill="#2C2C2C"/>
<g filter="url(#filter0_d_39_449)">
<path d="M70.403 291.619L127.283 291.476C130.283 291.469 132.445 292.183 133.768 293.62C135.092 294.936 135.757 297.155 135.765 300.275L135.766 300.815C135.775 304.175 135.121 306.636 133.805 308.2C132.609 309.643 130.45 310.368 127.33 310.376L109.87 310.42L110.127 412.3C110.135 415.42 109.481 417.701 108.164 419.145C106.968 420.468 104.869 421.133 101.869 421.141L96.6493 421.154C93.6493 421.161 91.4876 420.507 90.1643 419.19C88.8407 417.753 88.175 415.475 88.1671 412.355L87.9105 310.475L70.4506 310.519C67.3306 310.527 65.1088 309.813 63.7852 308.376C62.5813 306.819 61.9751 304.361 61.9666 301.001L61.9652 300.461C61.9574 297.341 62.6118 295.119 63.9285 293.796C65.2448 292.352 67.403 291.627 70.403 291.619ZM155.516 422.265C148.317 422.284 142.731 420.138 138.76 415.828C134.909 411.517 132.974 405.282 132.953 397.122L132.945 393.882C132.9 375.882 141.817 366.86 159.697 366.815L176.977 366.771L176.937 351.111C176.92 344.151 173.551 340.68 166.831 340.697C160.111 340.714 156.76 344.202 156.777 351.162L156.781 352.422C156.791 356.742 154.397 358.908 149.597 358.92L143.837 358.935C139.037 358.947 136.632 356.913 136.622 352.833L136.609 347.793C136.588 339.513 139.212 333.146 144.481 328.693C149.75 324.24 157.244 322.001 166.964 321.976C177.164 321.951 184.91 324.151 190.201 328.578C195.612 333.004 198.328 339.357 198.349 347.637L198.5 407.577C198.514 413.097 198.043 416.818 197.088 418.741C196.133 420.663 193.735 421.629 189.895 421.639C187.135 421.646 185.155 421.591 183.955 421.474C182.874 421.357 181.793 420.879 180.711 420.042C179.749 419.084 179.085 417.706 178.721 415.907C175.725 417.835 172.009 419.404 167.572 420.615C163.135 421.706 159.116 422.256 155.516 422.265ZM177.067 402.411L177.018 383.151L164.958 383.182C158.118 383.199 154.706 386.447 154.723 392.927L154.729 395.447C154.745 401.807 157.933 404.979 164.293 404.963C168.493 404.953 172.751 404.102 177.067 402.411ZM224.968 453.231C221.968 453.238 219.806 452.524 218.482 451.087C217.159 449.77 216.493 447.552 216.486 444.432L216.218 338.232C216.212 335.712 216.207 333.792 216.204 332.472C216.32 331.152 216.497 329.772 216.733 328.331C216.97 326.89 217.387 325.869 217.986 325.268C218.584 324.546 219.422 324.004 220.501 323.642C221.58 323.159 222.9 322.915 224.46 322.912C228.54 322.901 231.12 323.075 232.201 323.432C233.402 323.669 234.183 324.387 234.546 325.586L235.636 329.363C244.743 324.3 251.937 321.762 257.217 321.749C265.137 321.729 271.263 324.174 275.595 329.083C280.047 333.872 282.284 340.586 282.306 349.226L282.421 394.946C282.443 403.586 280.24 410.371 275.812 415.303C271.505 420.113 265.391 422.529 257.471 422.549C251.711 422.563 245.045 420.42 237.474 416.119L237.546 444.379C237.555 447.979 236.781 450.321 235.223 451.405C233.666 452.609 230.968 453.216 227.128 453.225L224.968 453.231ZM237.428 397.759C237.909 397.998 238.75 398.476 239.952 399.193C241.154 399.91 241.995 400.388 242.475 400.626C243.076 400.865 243.857 401.223 244.818 401.701C245.779 402.058 246.68 402.296 247.52 402.414C248.36 402.532 249.26 402.589 250.22 402.587C254.06 402.577 256.818 401.55 258.493 399.506C260.287 397.342 261.178 393.859 261.166 389.059L261.081 355.219C261.069 350.419 260.16 347.002 258.355 344.966C256.67 342.81 253.907 341.737 250.067 341.747C249.107 341.75 248.207 341.812 247.368 341.934C246.528 342.056 245.629 342.358 244.67 342.841C243.711 343.203 242.932 343.505 242.332 343.747C241.853 343.988 241.014 344.47 239.816 345.193C238.618 345.916 237.779 346.398 237.299 346.639L237.428 397.759ZM322.671 299.804L322.952 411.764C322.96 414.884 322.306 417.165 320.99 418.609C319.673 419.932 317.515 420.598 314.515 420.605L309.475 420.618C306.475 420.625 304.313 419.971 302.99 418.654C301.666 417.217 301 414.939 300.993 411.819L300.711 299.859C300.703 296.739 301.357 294.518 302.674 293.194C303.99 291.751 306.148 291.026 309.148 291.018L314.188 291.005C319.828 290.991 322.656 293.924 322.671 299.804ZM350.846 322.593L354.626 322.584C358.346 322.574 360.691 324.488 361.66 328.326L361.843 329.226C371.07 324.042 379.103 321.442 385.943 321.425C392.903 321.407 398.189 323.614 401.8 328.045C405.411 332.356 407.226 338.531 407.247 346.571L407.41 411.551C407.418 414.671 406.764 416.953 405.447 418.396C404.131 419.719 401.972 420.385 398.972 420.392L394.652 420.403C391.652 420.411 389.491 419.756 388.167 418.44C386.844 417.003 386.178 414.725 386.17 411.605L386.022 352.925C386.012 348.845 385.285 345.907 383.84 344.11C382.516 342.314 380.353 341.419 377.353 341.427C373.753 341.436 369.198 343.247 363.687 346.861L363.85 411.661C363.858 414.781 363.204 417.062 361.888 418.506C360.691 419.829 358.593 420.494 355.593 420.502L351.273 420.513C348.273 420.52 346.111 419.866 344.788 418.549C343.464 417.112 342.798 414.834 342.79 411.714L342.588 331.254C342.573 325.494 345.326 322.607 350.846 322.593Z" fill="#AFD3E2"/>
</g>
<g filter="url(#filter1_d_39_449)">
<path d="M99.4652 262.355C94.5325 260.56 91.9752 255.097 93.9284 250.225C118.484 188.972 162.918 137.624 220.225 104.533C280.28 69.8545 350.632 57.4419 418.929 69.4746C487.225 81.5072 549.099 117.216 593.687 170.33C638.274 223.445 662.724 290.569 662.743 359.918C662.763 429.266 638.35 496.404 593.793 549.543C549.235 602.683 487.381 638.426 419.091 650.497C350.802 662.568 280.442 650.194 220.368 615.55C163.043 582.49 118.58 531.168 93.9898 469.928C92.0338 465.057 94.5881 459.593 99.5198 457.795C104.451 455.997 109.892 458.546 111.859 463.413C134.911 520.455 176.411 568.256 229.865 599.083C286.068 631.495 351.893 643.071 415.782 631.778C479.672 620.485 537.54 587.045 579.226 537.33C620.913 487.614 643.752 424.802 643.734 359.923C643.716 295.043 620.841 232.244 579.127 182.552C537.413 132.86 479.526 99.4527 415.63 88.1954C351.735 76.9381 285.916 88.5509 229.731 120.995C176.294 151.851 134.821 199.675 111.801 256.731C109.837 261.598 104.398 264.15 99.4652 262.355Z" fill="#AFD3E2"/>
</g>
<g filter="url(#filter2_d_39_449)">
<path d="M417.306 247.557C420.142 242.184 426.982 240.338 431.814 244.022C447.268 255.804 460.208 271.184 469.673 289.111C480.97 310.507 486.918 334.778 486.92 359.485C486.923 384.192 480.979 408.465 469.687 429.864C460.225 447.793 447.288 463.176 431.835 474.961C427.004 478.646 420.165 476.802 417.327 471.43C414.785 466.615 416.411 460.695 420.737 457.39C433.814 447.399 444.763 434.37 452.774 419.189C462.353 401.036 467.395 380.446 467.393 359.488C467.391 338.529 462.346 317.94 452.763 299.79C444.749 284.61 433.797 271.584 420.719 261.596C416.392 258.292 414.764 252.372 417.306 247.557Z" fill="#AFD3E2"/>
<path d="M459.014 215.547C461.857 210.163 468.703 208.318 473.61 211.923C494.044 226.937 511.117 246.888 523.475 270.295C537.669 297.179 545.143 327.676 545.146 358.72C545.149 389.764 537.681 420.262 523.492 447.15C511.138 470.56 494.069 490.515 473.638 505.533C468.732 509.139 461.885 507.296 459.042 501.912C456.494 497.088 458.114 491.148 462.516 487.924C480.567 474.706 495.644 457.11 506.545 436.453C519.017 412.819 525.582 386.01 525.579 358.722C525.577 331.434 519.007 304.627 506.53 280.995C495.626 260.342 480.545 242.749 462.491 229.534C458.089 226.312 456.467 220.372 459.014 215.547Z" fill="#AFD3E2"/>
<path d="M498.994 183.585C501.798 178.274 508.546 176.458 513.432 179.95C539.131 198.32 560.573 223.067 575.975 252.24C593.189 284.844 602.253 321.829 602.257 359.478C602.26 397.126 593.203 434.113 575.996 466.721C560.599 495.898 539.162 520.649 513.466 539.025C508.581 542.519 501.832 540.704 499.028 535.393C496.514 530.635 498.106 524.77 502.493 521.652C525.842 505.055 545.316 482.631 559.28 456.17C574.794 426.771 582.96 393.424 582.957 359.48C582.954 325.536 574.781 292.191 559.262 262.795C545.293 236.337 525.814 213.918 502.462 197.326C498.075 194.209 496.482 188.344 498.994 183.585Z" fill="#AFD3E2"/>
</g>
<defs>
<filter id="filter0_d_39_449" x="60.9431" y="289.771" width="355.571" height="172.869" filterUnits="userSpaceOnUse" color-interpolation-filters="sRGB">
<feFlood flood-opacity="0" result="BackgroundImageFix"/>
<feColorMatrix in="SourceAlpha" type="matrix" values="0 0 0 0 0 0 0 0 0 0 0 0 0 0 0 0 0 0 127 0" result="hardAlpha"/>
<feOffset dx="4" dy="4"/>
<feGaussianBlur stdDeviation="2.5"/>
<feComposite in2="hardAlpha" operator="out"/>
<feColorMatrix type="matrix" values="0 0 0 0 0 0 0 0 0 0 0 0 0 0 0 0 0 0 0.3 0"/>
<feBlend mode="normal" in2="BackgroundImageFix" result="effect1_dropShadow_39_449"/>
<feBlend mode="normal" in="SourceGraphic" in2="effect1_dropShadow_39_449" result="shape"/>
</filter>
<filter id="filter1_d_39_449" x="92.2705" y="63.9994" width="579.473" height="600.001" filterUnits="userSpaceOnUse" color-interpolation-filters="sRGB">
<feFlood flood-opacity="0" result="BackgroundImageFix"/>
<feColorMatrix in="SourceAlpha" type="matrix" values="0 0 0 0 0 0 0 0 0 0 0 0 0 0 0 0 0 0 127 0" result="hardAlpha"/>
<feOffset dx="4" dy="4"/>
<feGaussianBlur stdDeviation="2.5"/>
<feComposite in2="hardAlpha" operator="out"/>
<feColorMatrix type="matrix" values="0 0 0 0 0 0 0 0 0 0 0 0 0 0 0 0 0 0 0.3 0"/>
<feBlend mode="normal" in2="BackgroundImageFix" result="effect1_dropShadow_39_449"/>
<feBlend mode="normal" in="SourceGraphic" in2="effect1_dropShadow_39_449" result="shape"/>
</filter>
<filter id="filter2_d_39_449" x="415.098" y="177.156" width="196.159" height="372.664" filterUnits="userSpaceOnUse" color-interpolation-filters="sRGB">
<feFlood flood-opacity="0" result="BackgroundImageFix"/>
<feColorMatrix in="SourceAlpha" type="matrix" values="0 0 0 0 0 0 0 0 0 0 0 0 0 0 0 0 0 0 127 0" result="hardAlpha"/>
<feOffset dx="4" dy="4"/>
<feGaussianBlur stdDeviation="2.5"/>
<feComposite in2="hardAlpha" operator="out"/>
<feColorMatrix type="matrix" values="0 0 0 0 0 0 0 0 0 0 0 0 0 0 0 0 0 0 0.3 0"/>
<feBlend mode="normal" in2="BackgroundImageFix" result="effect1_dropShadow_39_449"/>
<feBlend mode="normal" in="SourceGraphic" in2="effect1_dropShadow_39_449" result="shape"/>
</filter>
</defs>
</svg>
